<?xml version="1.0" encoding="utf-8" standalone="no"?>
<!DOCTYPE svg PUBLIC "-//W3C//DTD SVG 1.1//EN"
  "http://www.w3.org/Graphics/SVG/1.1/DTD/svg11.dtd">
<!-- Created with matplotlib (https://matplotlib.org/) -->
<svg height="1136.134219pt" version="1.1" viewBox="0 0 1839.764375 1136.134219" width="1839.764375pt" xmlns="http://www.w3.org/2000/svg" xmlns:xlink="http://www.w3.org/1999/xlink">
 <metadata>
  <rdf:RDF xmlns:cc="http://creativecommons.org/ns#" xmlns:dc="http://purl.org/dc/elements/1.1/" xmlns:rdf="http://www.w3.org/1999/02/22-rdf-syntax-ns#">
   <cc:Work>
    <dc:type rdf:resource="http://purl.org/dc/dcmitype/StillImage"/>
    <dc:date>2021-01-08T13:23:04.899858</dc:date>
    <dc:format>image/svg+xml</dc:format>
    <dc:creator>
     <cc:Agent>
      <dc:title>Matplotlib v3.3.2, https://matplotlib.org/</dc:title>
     </cc:Agent>
    </dc:creator>
   </cc:Work>
  </rdf:RDF>
 </metadata>
 <defs>
  <style type="text/css">*{stroke-linecap:butt;stroke-linejoin:round;}</style>
 </defs>
 <g id="figure_1">
  <g id="patch_1">
   <path d="M 0 1136.134219 
L 1839.764375 1136.134219 
L 1839.764375 0 
L 0 0 
z
" style="fill:#ffffff;"/>
  </g>
  <g id="axes_1">
   <g id="patch_2">
    <path d="M 46.964375 1094.4 
L 1832.564375 1094.4 
L 1832.564375 7.2 
L 46.964375 7.2 
z
" style="fill:#eaeaf2;"/>
   </g>
   <g id="matplotlib.axis_1">
    <g id="xtick_1">
     <g id="text_1">
      <!-- russell -->
      <g style="fill:#262626;" transform="translate(477.471953 1111.773594)scale(0.11 -0.11)">
       <defs>
        <path d="M 6.5 0 
L 6.5 51.859375 
L 14.40625 51.859375 
L 14.40625 44 
Q 17.4375 49.515625 20 51.265625 
Q 22.5625 53.03125 25.640625 53.03125 
Q 30.078125 53.03125 34.671875 50.203125 
L 31.640625 42.046875 
Q 28.421875 43.953125 25.203125 43.953125 
Q 22.3125 43.953125 20.015625 42.21875 
Q 17.71875 40.484375 16.75 37.40625 
Q 15.28125 32.71875 15.28125 27.15625 
L 15.28125 0 
z
" id="ArialMT-114"/>
        <path d="M 40.578125 0 
L 40.578125 7.625 
Q 34.515625 -1.171875 24.125 -1.171875 
Q 19.53125 -1.171875 15.546875 0.578125 
Q 11.578125 2.34375 9.640625 5 
Q 7.71875 7.671875 6.9375 11.53125 
Q 6.390625 14.109375 6.390625 19.734375 
L 6.390625 51.859375 
L 15.1875 51.859375 
L 15.1875 23.09375 
Q 15.1875 16.21875 15.71875 13.8125 
Q 16.546875 10.359375 19.234375 8.375 
Q 21.921875 6.390625 25.875 6.390625 
Q 29.828125 6.390625 33.296875 8.421875 
Q 36.765625 10.453125 38.203125 13.9375 
Q 39.65625 17.4375 39.65625 24.078125 
L 39.65625 51.859375 
L 48.4375 51.859375 
L 48.4375 0 
z
" id="ArialMT-117"/>
        <path d="M 3.078125 15.484375 
L 11.765625 16.84375 
Q 12.5 11.625 15.84375 8.84375 
Q 19.1875 6.0625 25.203125 6.0625 
Q 31.25 6.0625 34.171875 8.515625 
Q 37.109375 10.984375 37.109375 14.3125 
Q 37.109375 17.28125 34.515625 19 
Q 32.71875 20.171875 25.53125 21.96875 
Q 15.875 24.421875 12.140625 26.203125 
Q 8.40625 27.984375 6.46875 31.125 
Q 4.546875 34.28125 4.546875 38.09375 
Q 4.546875 41.546875 6.125 44.5 
Q 7.71875 47.46875 10.453125 49.421875 
Q 12.5 50.921875 16.03125 51.96875 
Q 19.578125 53.03125 23.640625 53.03125 
Q 29.734375 53.03125 34.34375 51.265625 
Q 38.96875 49.515625 41.15625 46.5 
Q 43.359375 43.5 44.1875 38.484375 
L 35.59375 37.3125 
Q 35.015625 41.3125 32.203125 43.546875 
Q 29.390625 45.796875 24.265625 45.796875 
Q 18.21875 45.796875 15.625 43.796875 
Q 13.03125 41.796875 13.03125 39.109375 
Q 13.03125 37.40625 14.109375 36.03125 
Q 15.1875 34.625 17.484375 33.6875 
Q 18.796875 33.203125 25.25 31.453125 
Q 34.578125 28.953125 38.25 27.359375 
Q 41.9375 25.78125 44.03125 22.75 
Q 46.140625 19.734375 46.140625 15.234375 
Q 46.140625 10.84375 43.578125 6.953125 
Q 41.015625 3.078125 36.171875 0.953125 
Q 31.34375 -1.171875 25.25 -1.171875 
Q 15.140625 -1.171875 9.84375 3.03125 
Q 4.546875 7.234375 3.078125 15.484375 
z
" id="ArialMT-115"/>
        <path d="M 42.09375 16.703125 
L 51.171875 15.578125 
Q 49.03125 7.625 43.21875 3.21875 
Q 37.40625 -1.171875 28.375 -1.171875 
Q 17 -1.171875 10.328125 5.828125 
Q 3.65625 12.84375 3.65625 25.484375 
Q 3.65625 38.578125 10.390625 45.796875 
Q 17.140625 53.03125 27.875 53.03125 
Q 38.28125 53.03125 44.875 45.953125 
Q 51.46875 38.875 51.46875 26.03125 
Q 51.46875 25.25 51.421875 23.6875 
L 12.75 23.6875 
Q 13.234375 15.140625 17.578125 10.59375 
Q 21.921875 6.0625 28.421875 6.0625 
Q 33.25 6.0625 36.671875 8.59375 
Q 40.09375 11.140625 42.09375 16.703125 
z
M 13.234375 30.90625 
L 42.1875 30.90625 
Q 41.609375 37.453125 38.875 40.71875 
Q 34.671875 45.796875 27.984375 45.796875 
Q 21.921875 45.796875 17.796875 41.75 
Q 13.671875 37.703125 13.234375 30.90625 
z
" id="ArialMT-101"/>
        <path d="M 6.390625 0 
L 6.390625 71.578125 
L 15.1875 71.578125 
L 15.1875 0 
z
" id="ArialMT-108"/>
       </defs>
       <use xlink:href="#ArialMT-114"/>
       <use x="33.300781" xlink:href="#ArialMT-117"/>
       <use x="88.916016" xlink:href="#ArialMT-115"/>
       <use x="138.916016" xlink:href="#ArialMT-115"/>
       <use x="188.916016" xlink:href="#ArialMT-101"/>
       <use x="244.53125" xlink:href="#ArialMT-108"/>
       <use x="266.748047" xlink:href="#ArialMT-108"/>
      </g>
     </g>
    </g>
    <g id="xtick_2">
     <g id="text_2">
      <!-- bottas -->
      <g style="fill:#262626;" transform="translate(1371.182891 1111.773594)scale(0.11 -0.11)">
       <defs>
        <path d="M 14.703125 0 
L 6.546875 0 
L 6.546875 71.578125 
L 15.328125 71.578125 
L 15.328125 46.046875 
Q 20.90625 53.03125 29.546875 53.03125 
Q 34.328125 53.03125 38.59375 51.09375 
Q 42.875 49.171875 45.625 45.671875 
Q 48.390625 42.1875 49.953125 37.25 
Q 51.515625 32.328125 51.515625 26.703125 
Q 51.515625 13.375 44.921875 6.09375 
Q 38.328125 -1.171875 29.109375 -1.171875 
Q 19.921875 -1.171875 14.703125 6.5 
z
M 14.59375 26.3125 
Q 14.59375 17 17.140625 12.84375 
Q 21.296875 6.0625 28.375 6.0625 
Q 34.125 6.0625 38.328125 11.0625 
Q 42.53125 16.0625 42.53125 25.984375 
Q 42.53125 36.140625 38.5 40.96875 
Q 34.46875 45.796875 28.765625 45.796875 
Q 23 45.796875 18.796875 40.796875 
Q 14.59375 35.796875 14.59375 26.3125 
z
" id="ArialMT-98"/>
        <path d="M 3.328125 25.921875 
Q 3.328125 40.328125 11.328125 47.265625 
Q 18.015625 53.03125 27.640625 53.03125 
Q 38.328125 53.03125 45.109375 46.015625 
Q 51.90625 39.015625 51.90625 26.65625 
Q 51.90625 16.65625 48.90625 10.90625 
Q 45.90625 5.171875 40.15625 2 
Q 34.421875 -1.171875 27.640625 -1.171875 
Q 16.75 -1.171875 10.03125 5.8125 
Q 3.328125 12.796875 3.328125 25.921875 
z
M 12.359375 25.921875 
Q 12.359375 15.96875 16.703125 11.015625 
Q 21.046875 6.0625 27.640625 6.0625 
Q 34.1875 6.0625 38.53125 11.03125 
Q 42.875 16.015625 42.875 26.21875 
Q 42.875 35.84375 38.5 40.796875 
Q 34.125 45.75 27.640625 45.75 
Q 21.046875 45.75 16.703125 40.8125 
Q 12.359375 35.890625 12.359375 25.921875 
z
" id="ArialMT-111"/>
        <path d="M 25.78125 7.859375 
L 27.046875 0.09375 
Q 23.34375 -0.6875 20.40625 -0.6875 
Q 15.625 -0.6875 12.984375 0.828125 
Q 10.359375 2.34375 9.28125 4.8125 
Q 8.203125 7.28125 8.203125 15.1875 
L 8.203125 45.015625 
L 1.765625 45.015625 
L 1.765625 51.859375 
L 8.203125 51.859375 
L 8.203125 64.703125 
L 16.9375 69.96875 
L 16.9375 51.859375 
L 25.78125 51.859375 
L 25.78125 45.015625 
L 16.9375 45.015625 
L 16.9375 14.703125 
Q 16.9375 10.9375 17.40625 9.859375 
Q 17.875 8.796875 18.921875 8.15625 
Q 19.96875 7.515625 21.921875 7.515625 
Q 23.390625 7.515625 25.78125 7.859375 
z
" id="ArialMT-116"/>
        <path d="M 40.4375 6.390625 
Q 35.546875 2.25 31.03125 0.53125 
Q 26.515625 -1.171875 21.34375 -1.171875 
Q 12.796875 -1.171875 8.203125 3 
Q 3.609375 7.171875 3.609375 13.671875 
Q 3.609375 17.484375 5.34375 20.625 
Q 7.078125 23.78125 9.890625 25.6875 
Q 12.703125 27.59375 16.21875 28.5625 
Q 18.796875 29.25 24.03125 29.890625 
Q 34.671875 31.15625 39.703125 32.90625 
Q 39.75 34.71875 39.75 35.203125 
Q 39.75 40.578125 37.25 42.78125 
Q 33.890625 45.75 27.25 45.75 
Q 21.046875 45.75 18.09375 43.578125 
Q 15.140625 41.40625 13.71875 35.890625 
L 5.125 37.0625 
Q 6.296875 42.578125 8.984375 45.96875 
Q 11.671875 49.359375 16.75 51.1875 
Q 21.828125 53.03125 28.515625 53.03125 
Q 35.15625 53.03125 39.296875 51.46875 
Q 43.453125 49.90625 45.40625 47.53125 
Q 47.359375 45.171875 48.140625 41.546875 
Q 48.578125 39.3125 48.578125 33.453125 
L 48.578125 21.734375 
Q 48.578125 9.46875 49.140625 6.21875 
Q 49.703125 2.984375 51.375 0 
L 42.1875 0 
Q 40.828125 2.734375 40.4375 6.390625 
z
M 39.703125 26.03125 
Q 34.90625 24.078125 25.34375 22.703125 
Q 19.921875 21.921875 17.671875 20.9375 
Q 15.4375 19.96875 14.203125 18.09375 
Q 12.984375 16.21875 12.984375 13.921875 
Q 12.984375 10.40625 15.640625 8.0625 
Q 18.3125 5.71875 23.4375 5.71875 
Q 28.515625 5.71875 32.46875 7.9375 
Q 36.421875 10.15625 38.28125 14.015625 
Q 39.703125 17 39.703125 22.796875 
z
" id="ArialMT-97"/>
       </defs>
       <use xlink:href="#ArialMT-98"/>
       <use x="55.615234" xlink:href="#ArialMT-111"/>
       <use x="111.230469" xlink:href="#ArialMT-116"/>
       <use x="139.013672" xlink:href="#ArialMT-116"/>
       <use x="166.796875" xlink:href="#ArialMT-97"/>
       <use x="222.412109" xlink:href="#ArialMT-115"/>
      </g>
     </g>
    </g>
    <g id="text_3">
     <!-- Driver -->
     <g style="fill:#262626;" transform="translate(923.765937 1126.549219)scale(0.12 -0.12)">
      <defs>
       <path d="M 7.71875 0 
L 7.71875 71.578125 
L 32.375 71.578125 
Q 40.71875 71.578125 45.125 70.5625 
Q 51.265625 69.140625 55.609375 65.4375 
Q 61.28125 60.640625 64.078125 53.1875 
Q 66.890625 45.75 66.890625 36.1875 
Q 66.890625 28.03125 64.984375 21.734375 
Q 63.09375 15.4375 60.109375 11.296875 
Q 57.125 7.171875 53.578125 4.796875 
Q 50.046875 2.4375 45.046875 1.21875 
Q 40.046875 0 33.546875 0 
z
M 17.1875 8.453125 
L 32.46875 8.453125 
Q 39.546875 8.453125 43.578125 9.765625 
Q 47.609375 11.078125 50 13.484375 
Q 53.375 16.84375 55.25 22.53125 
Q 57.125 28.21875 57.125 36.328125 
Q 57.125 47.5625 53.4375 53.59375 
Q 49.75 59.625 44.484375 61.671875 
Q 40.671875 63.140625 32.234375 63.140625 
L 17.1875 63.140625 
z
" id="ArialMT-68"/>
       <path d="M 6.640625 61.46875 
L 6.640625 71.578125 
L 15.4375 71.578125 
L 15.4375 61.46875 
z
M 6.640625 0 
L 6.640625 51.859375 
L 15.4375 51.859375 
L 15.4375 0 
z
" id="ArialMT-105"/>
       <path d="M 21 0 
L 1.265625 51.859375 
L 10.546875 51.859375 
L 21.6875 20.796875 
Q 23.484375 15.765625 25 10.359375 
Q 26.171875 14.453125 28.265625 20.21875 
L 39.796875 51.859375 
L 48.828125 51.859375 
L 29.203125 0 
z
" id="ArialMT-118"/>
      </defs>
      <use xlink:href="#ArialMT-68"/>
      <use x="72.216797" xlink:href="#ArialMT-114"/>
      <use x="105.517578" xlink:href="#ArialMT-105"/>
      <use x="127.734375" xlink:href="#ArialMT-118"/>
      <use x="177.734375" xlink:href="#ArialMT-101"/>
      <use x="233.349609" xlink:href="#ArialMT-114"/>
     </g>
    </g>
   </g>
   <g id="matplotlib.axis_2">
    <g id="ytick_1">
     <g id="line2d_1">
      <path clip-path="url(#pca24181e5c)" d="M 46.964375 1012.399696 
L 1832.564375 1012.399696 
" style="fill:none;stroke:#ffffff;stroke-linecap:round;"/>
     </g>
     <g id="text_4">
      <!-- 0.8 -->
      <g style="fill:#262626;" transform="translate(22.174375 1016.336493)scale(0.11 -0.11)">
       <defs>
        <path d="M 4.15625 35.296875 
Q 4.15625 48 6.765625 55.734375 
Q 9.375 63.484375 14.515625 67.671875 
Q 19.671875 71.875 27.484375 71.875 
Q 33.25 71.875 37.59375 69.546875 
Q 41.9375 67.234375 44.765625 62.859375 
Q 47.609375 58.5 49.21875 52.21875 
Q 50.828125 45.953125 50.828125 35.296875 
Q 50.828125 22.703125 48.234375 14.96875 
Q 45.65625 7.234375 40.5 3 
Q 35.359375 -1.21875 27.484375 -1.21875 
Q 17.140625 -1.21875 11.234375 6.203125 
Q 4.15625 15.140625 4.15625 35.296875 
z
M 13.1875 35.296875 
Q 13.1875 17.671875 17.3125 11.828125 
Q 21.4375 6 27.484375 6 
Q 33.546875 6 37.671875 11.859375 
Q 41.796875 17.71875 41.796875 35.296875 
Q 41.796875 52.984375 37.671875 58.78125 
Q 33.546875 64.59375 27.390625 64.59375 
Q 21.34375 64.59375 17.71875 59.46875 
Q 13.1875 52.9375 13.1875 35.296875 
z
" id="ArialMT-48"/>
        <path d="M 9.078125 0 
L 9.078125 10.015625 
L 19.09375 10.015625 
L 19.09375 0 
z
" id="ArialMT-46"/>
        <path d="M 17.671875 38.8125 
Q 12.203125 40.828125 9.5625 44.53125 
Q 6.9375 48.25 6.9375 53.421875 
Q 6.9375 61.234375 12.546875 66.546875 
Q 18.171875 71.875 27.484375 71.875 
Q 36.859375 71.875 42.578125 66.421875 
Q 48.296875 60.984375 48.296875 53.171875 
Q 48.296875 48.1875 45.671875 44.5 
Q 43.0625 40.828125 37.75 38.8125 
Q 44.34375 36.671875 47.78125 31.875 
Q 51.21875 27.09375 51.21875 20.453125 
Q 51.21875 11.28125 44.71875 5.03125 
Q 38.234375 -1.21875 27.640625 -1.21875 
Q 17.046875 -1.21875 10.546875 5.046875 
Q 4.046875 11.328125 4.046875 20.703125 
Q 4.046875 27.6875 7.59375 32.390625 
Q 11.140625 37.109375 17.671875 38.8125 
z
M 15.921875 53.71875 
Q 15.921875 48.640625 19.1875 45.40625 
Q 22.46875 42.1875 27.6875 42.1875 
Q 32.765625 42.1875 36.015625 45.375 
Q 39.265625 48.578125 39.265625 53.21875 
Q 39.265625 58.0625 35.90625 61.359375 
Q 32.5625 64.65625 27.59375 64.65625 
Q 22.5625 64.65625 19.234375 61.421875 
Q 15.921875 58.203125 15.921875 53.71875 
z
M 13.09375 20.65625 
Q 13.09375 16.890625 14.875 13.375 
Q 16.65625 9.859375 20.171875 7.921875 
Q 23.6875 6 27.734375 6 
Q 34.03125 6 38.125 10.046875 
Q 42.234375 14.109375 42.234375 20.359375 
Q 42.234375 26.703125 38.015625 30.859375 
Q 33.796875 35.015625 27.4375 35.015625 
Q 21.234375 35.015625 17.15625 30.90625 
Q 13.09375 26.8125 13.09375 20.65625 
z
" id="ArialMT-56"/>
       </defs>
       <use xlink:href="#ArialMT-48"/>
       <use x="55.615234" xlink:href="#ArialMT-46"/>
       <use x="83.398438" xlink:href="#ArialMT-56"/>
      </g>
     </g>
    </g>
    <g id="ytick_2">
     <g id="line2d_2">
      <path clip-path="url(#pca24181e5c)" d="M 46.964375 875.168818 
L 1832.564375 875.168818 
" style="fill:none;stroke:#ffffff;stroke-linecap:round;"/>
     </g>
     <g id="text_5">
      <!-- 1.0 -->
      <g style="fill:#262626;" transform="translate(22.174375 879.105615)scale(0.11 -0.11)">
       <defs>
        <path d="M 37.25 0 
L 28.46875 0 
L 28.46875 56 
Q 25.296875 52.984375 20.140625 49.953125 
Q 14.984375 46.921875 10.890625 45.40625 
L 10.890625 53.90625 
Q 18.265625 57.375 23.78125 62.296875 
Q 29.296875 67.234375 31.59375 71.875 
L 37.25 71.875 
z
" id="ArialMT-49"/>
       </defs>
       <use xlink:href="#ArialMT-49"/>
       <use x="55.615234" xlink:href="#ArialMT-46"/>
       <use x="83.398438" xlink:href="#ArialMT-48"/>
      </g>
     </g>
    </g>
    <g id="ytick_3">
     <g id="line2d_3">
      <path clip-path="url(#pca24181e5c)" d="M 46.964375 737.93794 
L 1832.564375 737.93794 
" style="fill:none;stroke:#ffffff;stroke-linecap:round;"/>
     </g>
     <g id="text_6">
      <!-- 1.2 -->
      <g style="fill:#262626;" transform="translate(22.174375 741.874737)scale(0.11 -0.11)">
       <defs>
        <path d="M 50.34375 8.453125 
L 50.34375 0 
L 3.03125 0 
Q 2.9375 3.171875 4.046875 6.109375 
Q 5.859375 10.9375 9.828125 15.625 
Q 13.8125 20.3125 21.34375 26.46875 
Q 33.015625 36.03125 37.109375 41.625 
Q 41.21875 47.21875 41.21875 52.203125 
Q 41.21875 57.421875 37.46875 61 
Q 33.734375 64.59375 27.734375 64.59375 
Q 21.390625 64.59375 17.578125 60.78125 
Q 13.765625 56.984375 13.71875 50.25 
L 4.6875 51.171875 
Q 5.609375 61.28125 11.65625 66.578125 
Q 17.71875 71.875 27.9375 71.875 
Q 38.234375 71.875 44.234375 66.15625 
Q 50.25 60.453125 50.25 52 
Q 50.25 47.703125 48.484375 43.546875 
Q 46.734375 39.40625 42.65625 34.8125 
Q 38.578125 30.21875 29.109375 22.21875 
Q 21.1875 15.578125 18.9375 13.203125 
Q 16.703125 10.84375 15.234375 8.453125 
z
" id="ArialMT-50"/>
       </defs>
       <use xlink:href="#ArialMT-49"/>
       <use x="55.615234" xlink:href="#ArialMT-46"/>
       <use x="83.398438" xlink:href="#ArialMT-50"/>
      </g>
     </g>
    </g>
    <g id="ytick_4">
     <g id="line2d_4">
      <path clip-path="url(#pca24181e5c)" d="M 46.964375 600.707061 
L 1832.564375 600.707061 
" style="fill:none;stroke:#ffffff;stroke-linecap:round;"/>
     </g>
     <g id="text_7">
      <!-- 1.4 -->
      <g style="fill:#262626;" transform="translate(22.174375 604.643858)scale(0.11 -0.11)">
       <defs>
        <path d="M 32.328125 0 
L 32.328125 17.140625 
L 1.265625 17.140625 
L 1.265625 25.203125 
L 33.9375 71.578125 
L 41.109375 71.578125 
L 41.109375 25.203125 
L 50.78125 25.203125 
L 50.78125 17.140625 
L 41.109375 17.140625 
L 41.109375 0 
z
M 32.328125 25.203125 
L 32.328125 57.46875 
L 9.90625 25.203125 
z
" id="ArialMT-52"/>
       </defs>
       <use xlink:href="#ArialMT-49"/>
       <use x="55.615234" xlink:href="#ArialMT-46"/>
       <use x="83.398438" xlink:href="#ArialMT-52"/>
      </g>
     </g>
    </g>
    <g id="ytick_5">
     <g id="line2d_5">
      <path clip-path="url(#pca24181e5c)" d="M 46.964375 463.476183 
L 1832.564375 463.476183 
" style="fill:none;stroke:#ffffff;stroke-linecap:round;"/>
     </g>
     <g id="text_8">
      <!-- 1.6 -->
      <g style="fill:#262626;" transform="translate(22.174375 467.41298)scale(0.11 -0.11)">
       <defs>
        <path d="M 49.75 54.046875 
L 41.015625 53.375 
Q 39.84375 58.546875 37.703125 60.890625 
Q 34.125 64.65625 28.90625 64.65625 
Q 24.703125 64.65625 21.53125 62.3125 
Q 17.390625 59.28125 14.984375 53.46875 
Q 12.59375 47.65625 12.5 36.921875 
Q 15.671875 41.75 20.265625 44.09375 
Q 24.859375 46.4375 29.890625 46.4375 
Q 38.671875 46.4375 44.84375 39.96875 
Q 51.03125 33.5 51.03125 23.25 
Q 51.03125 16.5 48.125 10.71875 
Q 45.21875 4.9375 40.140625 1.859375 
Q 35.0625 -1.21875 28.609375 -1.21875 
Q 17.625 -1.21875 10.6875 6.859375 
Q 3.765625 14.9375 3.765625 33.5 
Q 3.765625 54.25 11.421875 63.671875 
Q 18.109375 71.875 29.4375 71.875 
Q 37.890625 71.875 43.28125 67.140625 
Q 48.6875 62.40625 49.75 54.046875 
z
M 13.875 23.1875 
Q 13.875 18.65625 15.796875 14.5 
Q 17.71875 10.359375 21.1875 8.171875 
Q 24.65625 6 28.46875 6 
Q 34.03125 6 38.03125 10.484375 
Q 42.046875 14.984375 42.046875 22.703125 
Q 42.046875 30.125 38.078125 34.390625 
Q 34.125 38.671875 28.125 38.671875 
Q 22.171875 38.671875 18.015625 34.390625 
Q 13.875 30.125 13.875 23.1875 
z
" id="ArialMT-54"/>
       </defs>
       <use xlink:href="#ArialMT-49"/>
       <use x="55.615234" xlink:href="#ArialMT-46"/>
       <use x="83.398438" xlink:href="#ArialMT-54"/>
      </g>
     </g>
    </g>
    <g id="ytick_6">
     <g id="line2d_6">
      <path clip-path="url(#pca24181e5c)" d="M 46.964375 326.245305 
L 1832.564375 326.245305 
" style="fill:none;stroke:#ffffff;stroke-linecap:round;"/>
     </g>
     <g id="text_9">
      <!-- 1.8 -->
      <g style="fill:#262626;" transform="translate(22.174375 330.182102)scale(0.11 -0.11)">
       <use xlink:href="#ArialMT-49"/>
       <use x="55.615234" xlink:href="#ArialMT-46"/>
       <use x="83.398438" xlink:href="#ArialMT-56"/>
      </g>
     </g>
    </g>
    <g id="ytick_7">
     <g id="line2d_7">
      <path clip-path="url(#pca24181e5c)" d="M 46.964375 189.014427 
L 1832.564375 189.014427 
" style="fill:none;stroke:#ffffff;stroke-linecap:round;"/>
     </g>
     <g id="text_10">
      <!-- 2.0 -->
      <g style="fill:#262626;" transform="translate(22.174375 192.951224)scale(0.11 -0.11)">
       <use xlink:href="#ArialMT-50"/>
       <use x="55.615234" xlink:href="#ArialMT-46"/>
       <use x="83.398438" xlink:href="#ArialMT-48"/>
      </g>
     </g>
    </g>
    <g id="ytick_8">
     <g id="line2d_8">
      <path clip-path="url(#pca24181e5c)" d="M 46.964375 51.783549 
L 1832.564375 51.783549 
" style="fill:none;stroke:#ffffff;stroke-linecap:round;"/>
     </g>
     <g id="text_11">
      <!-- 2.2 -->
      <g style="fill:#262626;" transform="translate(22.174375 55.720346)scale(0.11 -0.11)">
       <use xlink:href="#ArialMT-50"/>
       <use x="55.615234" xlink:href="#ArialMT-46"/>
       <use x="83.398438" xlink:href="#ArialMT-50"/>
      </g>
     </g>
    </g>
    <g id="text_12">
     <!-- LapTime [min] -->
     <g style="fill:#262626;" transform="translate(15.789375 588.585)rotate(-90)scale(0.12 -0.12)">
      <defs>
       <path d="M 7.328125 0 
L 7.328125 71.578125 
L 16.796875 71.578125 
L 16.796875 8.453125 
L 52.046875 8.453125 
L 52.046875 0 
z
" id="ArialMT-76"/>
       <path d="M 6.59375 -19.875 
L 6.59375 51.859375 
L 14.59375 51.859375 
L 14.59375 45.125 
Q 17.4375 49.078125 21 51.046875 
Q 24.5625 53.03125 29.640625 53.03125 
Q 36.28125 53.03125 41.359375 49.609375 
Q 46.4375 46.1875 49.015625 39.953125 
Q 51.609375 33.734375 51.609375 26.3125 
Q 51.609375 18.359375 48.75 11.984375 
Q 45.90625 5.609375 40.453125 2.21875 
Q 35.015625 -1.171875 29 -1.171875 
Q 24.609375 -1.171875 21.109375 0.6875 
Q 17.625 2.546875 15.375 5.375 
L 15.375 -19.875 
z
M 14.546875 25.640625 
Q 14.546875 15.625 18.59375 10.84375 
Q 22.65625 6.0625 28.421875 6.0625 
Q 34.28125 6.0625 38.453125 11.015625 
Q 42.625 15.96875 42.625 26.375 
Q 42.625 36.28125 38.546875 41.203125 
Q 34.46875 46.140625 28.8125 46.140625 
Q 23.1875 46.140625 18.859375 40.890625 
Q 14.546875 35.640625 14.546875 25.640625 
z
" id="ArialMT-112"/>
       <path d="M 25.921875 0 
L 25.921875 63.140625 
L 2.34375 63.140625 
L 2.34375 71.578125 
L 59.078125 71.578125 
L 59.078125 63.140625 
L 35.40625 63.140625 
L 35.40625 0 
z
" id="ArialMT-84"/>
       <path d="M 6.59375 0 
L 6.59375 51.859375 
L 14.453125 51.859375 
L 14.453125 44.578125 
Q 16.890625 48.390625 20.9375 50.703125 
Q 25 53.03125 30.171875 53.03125 
Q 35.9375 53.03125 39.625 50.640625 
Q 43.3125 48.25 44.828125 43.953125 
Q 50.984375 53.03125 60.84375 53.03125 
Q 68.5625 53.03125 72.703125 48.75 
Q 76.859375 44.484375 76.859375 35.59375 
L 76.859375 0 
L 68.109375 0 
L 68.109375 32.671875 
Q 68.109375 37.9375 67.25 40.25 
Q 66.40625 42.578125 64.15625 43.984375 
Q 61.921875 45.40625 58.890625 45.40625 
Q 53.421875 45.40625 49.796875 41.765625 
Q 46.1875 38.140625 46.1875 30.125 
L 46.1875 0 
L 37.40625 0 
L 37.40625 33.6875 
Q 37.40625 39.546875 35.25 42.46875 
Q 33.109375 45.40625 28.21875 45.40625 
Q 24.515625 45.40625 21.359375 43.453125 
Q 18.21875 41.5 16.796875 37.734375 
Q 15.375 33.984375 15.375 26.90625 
L 15.375 0 
z
" id="ArialMT-109"/>
       <path id="ArialMT-32"/>
       <path d="M 6.78125 -19.875 
L 6.78125 71.578125 
L 26.171875 71.578125 
L 26.171875 64.3125 
L 15.578125 64.3125 
L 15.578125 -12.59375 
L 26.171875 -12.59375 
L 26.171875 -19.875 
z
" id="ArialMT-91"/>
       <path d="M 6.59375 0 
L 6.59375 51.859375 
L 14.5 51.859375 
L 14.5 44.484375 
Q 20.21875 53.03125 31 53.03125 
Q 35.6875 53.03125 39.625 51.34375 
Q 43.5625 49.65625 45.515625 46.921875 
Q 47.46875 44.1875 48.25 40.4375 
Q 48.734375 37.984375 48.734375 31.890625 
L 48.734375 0 
L 39.9375 0 
L 39.9375 31.546875 
Q 39.9375 36.921875 38.90625 39.578125 
Q 37.890625 42.234375 35.28125 43.8125 
Q 32.671875 45.40625 29.15625 45.40625 
Q 23.53125 45.40625 19.453125 41.84375 
Q 15.375 38.28125 15.375 28.328125 
L 15.375 0 
z
" id="ArialMT-110"/>
       <path d="M 21.296875 -19.875 
L 1.90625 -19.875 
L 1.90625 -12.59375 
L 12.5 -12.59375 
L 12.5 64.3125 
L 1.90625 64.3125 
L 1.90625 71.578125 
L 21.296875 71.578125 
z
" id="ArialMT-93"/>
      </defs>
      <use xlink:href="#ArialMT-76"/>
      <use x="55.615234" xlink:href="#ArialMT-97"/>
      <use x="111.230469" xlink:href="#ArialMT-112"/>
      <use x="166.845703" xlink:href="#ArialMT-84"/>
      <use x="224.179688" xlink:href="#ArialMT-105"/>
      <use x="246.396484" xlink:href="#ArialMT-109"/>
      <use x="329.697266" xlink:href="#ArialMT-101"/>
      <use x="385.3125" xlink:href="#ArialMT-32"/>
      <use x="413.095703" xlink:href="#ArialMT-91"/>
      <use x="440.878906" xlink:href="#ArialMT-109"/>
      <use x="524.179688" xlink:href="#ArialMT-105"/>
      <use x="546.396484" xlink:href="#ArialMT-110"/>
      <use x="602.011719" xlink:href="#ArialMT-93"/>
     </g>
    </g>
   </g>
   <g id="PolyCollection_1">
    <defs>
     <path d="M 512.076267 -91.152401 
L 474.652483 -91.152401 
L 466.802954 -100.066541 
L 456.499484 -108.980682 
L 443.337357 -117.894822 
L 426.985667 -126.808963 
L 407.247425 -135.723104 
L 384.122757 -144.637244 
L 357.866556 -153.551385 
L 329.030311 -162.465525 
L 298.477701 -171.379666 
L 267.365484 -180.293807 
L 237.08524 -189.207947 
L 209.167234 -198.122088 
L 185.154207 -207.036228 
L 166.458959 -215.950369 
L 154.223851 -224.864509 
L 149.201738 -233.77865 
L 151.675753 -242.692791 
L 161.430012 -251.606931 
L 177.775612 -260.521072 
L 199.627739 -269.435212 
L 225.621977 -278.349353 
L 254.252486 -287.263494 
L 284.012602 -296.177634 
L 313.519745 -305.091775 
L 341.610807 -314.005915 
L 367.400303 -322.920056 
L 390.300129 -331.834197 
L 410.005553 -340.748337 
L 426.456038 -349.662478 
L 439.781375 -358.576618 
L 450.243295 -367.490759 
L 458.180917 -376.4049 
L 463.96553 -385.31904 
L 467.967285 -394.233181 
L 470.533698 -403.147321 
L 471.978072 -412.061462 
L 472.574976 -420.975603 
L 472.559817 -429.889743 
L 472.130083 -438.803884 
L 471.446687 -447.718024 
L 470.634862 -456.632165 
L 469.784816 -465.546306 
L 468.952924 -474.460446 
L 468.16434 -483.374587 
L 467.417719 -492.288727 
L 466.692256 -501.202868 
L 465.956661 -510.117009 
L 465.179108 -519.031149 
L 464.336847 -527.94529 
L 463.424018 -536.85943 
L 462.456424 -545.773571 
L 461.472469 -554.687712 
L 460.530129 -563.601852 
L 459.700468 -572.515993 
L 459.058823 -581.430133 
L 458.675124 -590.344274 
L 458.60493 -599.258414 
L 458.882537 -608.172555 
L 459.517119 -617.086696 
L 460.492296 -626.000836 
L 461.768938 -634.914977 
L 463.290531 -643.829117 
L 464.990108 -652.743258 
L 466.797608 -661.657399 
L 468.64661 -670.571539 
L 470.47962 -679.48568 
L 472.251402 -688.39982 
L 473.930221 -697.313961 
L 475.497185 -706.228102 
L 476.944128 -715.142242 
L 478.270621 -724.056383 
L 479.480765 -732.970523 
L 480.580318 -741.884664 
L 481.574621 -750.798805 
L 482.467551 -759.712945 
L 483.261531 -768.627086 
L 483.958429 -777.541226 
L 484.560998 -786.455367 
L 485.074453 -795.369508 
L 485.507725 -804.283648 
L 485.874065 -813.197789 
L 486.190778 -822.111929 
L 486.478072 -831.02607 
L 486.757193 -839.940211 
L 487.048162 -848.854351 
L 487.367513 -857.768492 
L 487.72644 -866.682632 
L 488.129655 -875.596773 
L 488.575148 -884.510914 
L 489.054838 -893.425054 
L 489.555981 -902.339195 
L 490.063045 -911.253335 
L 490.559752 -920.167476 
L 491.03096 -929.081617 
L 491.464141 -937.995757 
L 491.850324 -946.909898 
L 492.184444 -955.824038 
L 492.465183 -964.738179 
L 492.694413 -973.65232 
L 494.034337 -973.65232 
L 494.034337 -973.65232 
L 494.263567 -964.738179 
L 494.544306 -955.824038 
L 494.878426 -946.909898 
L 495.264609 -937.995757 
L 495.69779 -929.081617 
L 496.168998 -920.167476 
L 496.665705 -911.253335 
L 497.172769 -902.339195 
L 497.673912 -893.425054 
L 498.153602 -884.510914 
L 498.599095 -875.596773 
L 499.00231 -866.682632 
L 499.361237 -857.768492 
L 499.680588 -848.854351 
L 499.971557 -839.940211 
L 500.250678 -831.02607 
L 500.537972 -822.111929 
L 500.854685 -813.197789 
L 501.221025 -804.283648 
L 501.654297 -795.369508 
L 502.167752 -786.455367 
L 502.770321 -777.541226 
L 503.467219 -768.627086 
L 504.261199 -759.712945 
L 505.154129 -750.798805 
L 506.148432 -741.884664 
L 507.247985 -732.970523 
L 508.458129 -724.056383 
L 509.784622 -715.142242 
L 511.231565 -706.228102 
L 512.798529 -697.313961 
L 514.477348 -688.39982 
L 516.24913 -679.48568 
L 518.08214 -670.571539 
L 519.931142 -661.657399 
L 521.738642 -652.743258 
L 523.438219 -643.829117 
L 524.959812 -634.914977 
L 526.236454 -626.000836 
L 527.211631 -617.086696 
L 527.846213 -608.172555 
L 528.12382 -599.258414 
L 528.053626 -590.344274 
L 527.669927 -581.430133 
L 527.028282 -572.515993 
L 526.198621 -563.601852 
L 525.256281 -554.687712 
L 524.272326 -545.773571 
L 523.304732 -536.85943 
L 522.391903 -527.94529 
L 521.549642 -519.031149 
L 520.772089 -510.117009 
L 520.036494 -501.202868 
L 519.311031 -492.288727 
L 518.56441 -483.374587 
L 517.775826 -474.460446 
L 516.943934 -465.546306 
L 516.093888 -456.632165 
L 515.282063 -447.718024 
L 514.598667 -438.803884 
L 514.168933 -429.889743 
L 514.153774 -420.975603 
L 514.750678 -412.061462 
L 516.195052 -403.147321 
L 518.761465 -394.233181 
L 522.76322 -385.31904 
L 528.547833 -376.4049 
L 536.485455 -367.490759 
L 546.947375 -358.576618 
L 560.272712 -349.662478 
L 576.723197 -340.748337 
L 596.428621 -331.834197 
L 619.328447 -322.920056 
L 645.117943 -314.005915 
L 673.209005 -305.091775 
L 702.716148 -296.177634 
L 732.476264 -287.263494 
L 761.106773 -278.349353 
L 787.101011 -269.435212 
L 808.953138 -260.521072 
L 825.298738 -251.606931 
L 835.052997 -242.692791 
L 837.527012 -233.77865 
L 832.504899 -224.864509 
L 820.269791 -215.950369 
L 801.574543 -207.036228 
L 777.561516 -198.122088 
L 749.64351 -189.207947 
L 719.363266 -180.293807 
L 688.251049 -171.379666 
L 657.698439 -162.465525 
L 628.862194 -153.551385 
L 602.605993 -144.637244 
L 579.481325 -135.723104 
L 559.743083 -126.808963 
L 543.391393 -117.894822 
L 530.229266 -108.980682 
L 519.925796 -100.066541 
L 512.076267 -91.152401 
z
" id="m2445bc7b30" style="stroke:#4c4c4c;stroke-width:1.5;"/>
    </defs>
    <g clip-path="url(#pca24181e5c)">
     <use style="fill:#5875a4;stroke:#4c4c4c;stroke-width:1.5;" x="0" xlink:href="#m2445bc7b30" y="1136.134219"/>
    </g>
   </g>
   <g id="PolyCollection_2">
    <defs>
     <path d="M 1413.634608 -106.692267 
L 1358.694142 -106.692267 
L 1346.439975 -116.518769 
L 1330.341958 -126.345272 
L 1309.935419 -136.171775 
L 1285.007385 -145.998278 
L 1255.715025 -155.82478 
L 1222.684329 -165.651283 
L 1187.063733 -175.477786 
L 1150.509794 -185.304289 
L 1115.090769 -195.130791 
L 1083.108384 -204.957294 
L 1056.855489 -214.783797 
L 1038.343527 -224.610299 
L 1029.044375 -234.436802 
L 1029.692545 -244.263305 
L 1040.184757 -254.089808 
L 1059.59608 -263.91631 
L 1086.309306 -273.742813 
L 1118.232589 -283.569316 
L 1153.064802 -293.395819 
L 1188.562136 -303.222321 
L 1222.763796 -313.048824 
L 1254.147279 -322.875327 
L 1281.700696 -332.701829 
L 1304.916434 -342.528332 
L 1323.723351 -352.354835 
L 1338.381614 -362.181338 
L 1349.364978 -372.00784 
L 1357.251046 -381.834343 
L 1362.633024 -391.660846 
L 1366.058947 -401.487349 
L 1367.997885 -411.313851 
L 1368.828362 -421.140354 
L 1368.842219 -430.966857 
L 1368.257062 -440.79336 
L 1367.231768 -450.619862 
L 1365.881347 -460.446365 
L 1364.289419 -470.272868 
L 1362.518048 -480.09937 
L 1360.615576 -489.925873 
L 1358.623329 -499.752376 
L 1356.581779 -509.578879 
L 1354.536164 -519.405381 
L 1352.54099 -529.231884 
L 1350.662496 -539.058387 
L 1348.978218 -548.88489 
L 1347.573242 -558.711392 
L 1346.533434 -568.537895 
L 1345.93669 -578.364398 
L 1345.8438 -588.1909 
L 1346.290666 -598.017403 
L 1347.283368 -607.843906 
L 1348.796929 -617.670409 
L 1350.777859 -627.496911 
L 1353.149808 -637.323414 
L 1355.821127 -647.149917 
L 1358.693015 -656.97642 
L 1361.667021 -666.802922 
L 1364.65111 -676.629425 
L 1367.563939 -686.455928 
L 1370.337399 -696.28243 
L 1372.917758 -706.108933 
L 1375.265792 -715.935436 
L 1377.356268 -725.761939 
L 1379.176967 -735.588441 
L 1380.727341 -745.414944 
L 1382.016818 -755.241447 
L 1383.062735 -765.06795 
L 1383.887977 -774.894452 
L 1384.518438 -784.720955 
L 1384.980518 -794.547458 
L 1385.29887 -804.373961 
L 1385.494632 -814.200463 
L 1385.584318 -824.026966 
L 1385.579488 -833.853469 
L 1385.487235 -843.679971 
L 1385.311439 -853.506474 
L 1385.054651 -863.332977 
L 1384.720386 -873.15948 
L 1384.315465 -882.985982 
L 1383.852045 -892.812485 
L 1383.348874 -902.638988 
L 1382.831452 -912.465491 
L 1382.330848 -922.291993 
L 1381.881218 -932.118496 
L 1381.516287 -941.944999 
L 1381.265357 -951.771501 
L 1381.149506 -961.598004 
L 1381.178722 -971.424507 
L 1381.350498 -981.25101 
L 1381.650208 -991.077512 
L 1382.053165 -1000.904015 
L 1382.52798 -1010.730518 
L 1383.040586 -1020.557021 
L 1383.558212 -1030.383523 
L 1384.052683 -1040.210026 
L 1384.502613 -1050.036529 
L 1384.894338 -1059.863031 
L 1385.221676 -1069.689534 
L 1385.484798 -1079.516037 
L 1386.843952 -1079.516037 
L 1386.843952 -1079.516037 
L 1387.107074 -1069.689534 
L 1387.434412 -1059.863031 
L 1387.826137 -1050.036529 
L 1388.276067 -1040.210026 
L 1388.770538 -1030.383523 
L 1389.288164 -1020.557021 
L 1389.80077 -1010.730518 
L 1390.275585 -1000.904015 
L 1390.678542 -991.077512 
L 1390.978252 -981.25101 
L 1391.150028 -971.424507 
L 1391.179244 -961.598004 
L 1391.063393 -951.771501 
L 1390.812463 -941.944999 
L 1390.447532 -932.118496 
L 1389.997902 -922.291993 
L 1389.497298 -912.465491 
L 1388.979876 -902.638988 
L 1388.476705 -892.812485 
L 1388.013285 -882.985982 
L 1387.608364 -873.15948 
L 1387.274099 -863.332977 
L 1387.017311 -853.506474 
L 1386.841515 -843.679971 
L 1386.749262 -833.853469 
L 1386.744432 -824.026966 
L 1386.834118 -814.200463 
L 1387.02988 -804.373961 
L 1387.348232 -794.547458 
L 1387.810312 -784.720955 
L 1388.440773 -774.894452 
L 1389.266015 -765.06795 
L 1390.311932 -755.241447 
L 1391.601409 -745.414944 
L 1393.151783 -735.588441 
L 1394.972482 -725.761939 
L 1397.062958 -715.935436 
L 1399.410992 -706.108933 
L 1401.991351 -696.28243 
L 1404.764811 -686.455928 
L 1407.67764 -676.629425 
L 1410.661729 -666.802922 
L 1413.635735 -656.97642 
L 1416.507623 -647.149917 
L 1419.178942 -637.323414 
L 1421.550891 -627.496911 
L 1423.531821 -617.670409 
L 1425.045382 -607.843906 
L 1426.038084 -598.017403 
L 1426.48495 -588.1909 
L 1426.39206 -578.364398 
L 1425.795316 -568.537895 
L 1424.755508 -558.711392 
L 1423.350532 -548.88489 
L 1421.666254 -539.058387 
L 1419.78776 -529.231884 
L 1417.792586 -519.405381 
L 1415.746971 -509.578879 
L 1413.705421 -499.752376 
L 1411.713174 -489.925873 
L 1409.810702 -480.09937 
L 1408.039331 -470.272868 
L 1406.447403 -460.446365 
L 1405.096982 -450.619862 
L 1404.071688 -440.79336 
L 1403.486531 -430.966857 
L 1403.500388 -421.140354 
L 1404.330865 -411.313851 
L 1406.269803 -401.487349 
L 1409.695726 -391.660846 
L 1415.077704 -381.834343 
L 1422.963772 -372.00784 
L 1433.947136 -362.181338 
L 1448.605399 -352.354835 
L 1467.412316 -342.528332 
L 1490.628054 -332.701829 
L 1518.181471 -322.875327 
L 1549.564954 -313.048824 
L 1583.766614 -303.222321 
L 1619.263948 -293.395819 
L 1654.096161 -283.569316 
L 1686.019444 -273.742813 
L 1712.73267 -263.91631 
L 1732.143993 -254.089808 
L 1742.636205 -244.263305 
L 1743.284375 -234.436802 
L 1733.985223 -224.610299 
L 1715.473261 -214.783797 
L 1689.220366 -204.957294 
L 1657.237981 -195.130791 
L 1621.818956 -185.304289 
L 1585.265017 -175.477786 
L 1549.644421 -165.651283 
L 1516.613725 -155.82478 
L 1487.321365 -145.998278 
L 1462.393331 -136.171775 
L 1441.986792 -126.345272 
L 1425.888775 -116.518769 
L 1413.634608 -106.692267 
z
" id="m42cdb4b4d4" style="stroke:#4c4c4c;stroke-width:1.5;"/>
    </defs>
    <g clip-path="url(#pca24181e5c)">
     <use style="fill:#cc8963;stroke:#4c4c4c;stroke-width:1.5;" x="0" xlink:href="#m42cdb4b4d4" y="1136.134219"/>
    </g>
   </g>
   <g id="line2d_9">
    <path clip-path="url(#pca24181e5c)" d="M 493.364375 927.728244 
L 493.364375 885.564057 
" style="fill:none;stroke:#4c4c4c;stroke-linecap:round;stroke-width:1.5;"/>
   </g>
   <g id="line2d_10">
    <path clip-path="url(#pca24181e5c)" d="M 493.364375 909.333589 
L 493.364375 893.93514 
" style="fill:none;stroke:#4c4c4c;stroke-linecap:round;stroke-width:4.5;"/>
   </g>
   <g id="line2d_11">
    <path clip-path="url(#pca24181e5c)" d="M 1386.164375 914.474029 
L 1386.164375 885.644108 
" style="fill:none;stroke:#4c4c4c;stroke-linecap:round;stroke-width:1.5;"/>
   </g>
   <g id="line2d_12">
    <path clip-path="url(#pca24181e5c)" d="M 1386.164375 901.499993 
L 1386.164375 891.373497 
" style="fill:none;stroke:#4c4c4c;stroke-linecap:round;stroke-width:4.5;"/>
   </g>
   <g id="patch_3">
    <path d="M 46.964375 1094.4 
L 46.964375 7.2 
" style="fill:none;stroke:#ffffff;stroke-linecap:square;stroke-linejoin:miter;stroke-width:1.25;"/>
   </g>
   <g id="patch_4">
    <path d="M 1832.564375 1094.4 
L 1832.564375 7.2 
" style="fill:none;stroke:#ffffff;stroke-linecap:square;stroke-linejoin:miter;stroke-width:1.25;"/>
   </g>
   <g id="patch_5">
    <path d="M 46.964375 1094.4 
L 1832.564375 1094.4 
" style="fill:none;stroke:#ffffff;stroke-linecap:square;stroke-linejoin:miter;stroke-width:1.25;"/>
   </g>
   <g id="patch_6">
    <path d="M 46.964375 7.2 
L 1832.564375 7.2 
" style="fill:none;stroke:#ffffff;stroke-linecap:square;stroke-linejoin:miter;stroke-width:1.25;"/>
   </g>
   <g id="PathCollection_1">
    <defs>
     <path d="M 0 1.5 
C 0.397805 1.5 0.77937 1.341951 1.06066 1.06066 
C 1.341951 0.77937 1.5 0.397805 1.5 0 
C 1.5 -0.397805 1.341951 -0.77937 1.06066 -1.06066 
C 0.77937 -1.341951 0.397805 -1.5 0 -1.5 
C -0.397805 -1.5 -0.77937 -1.341951 -1.06066 -1.06066 
C -1.341951 -0.77937 -1.5 -0.397805 -1.5 0 
C -1.5 0.397805 -1.341951 0.77937 -1.06066 1.06066 
C -0.77937 1.341951 -0.397805 1.5 0 1.5 
z
" id="m6278f1fcfb" style="stroke:#4c4c4c;"/>
    </defs>
    <g clip-path="url(#pca24181e5c)">
     <use style="fill:#ffffff;stroke:#4c4c4c;" x="493.364375" xlink:href="#m6278f1fcfb" y="896.153706"/>
    </g>
   </g>
   <g id="PathCollection_2">
    <g clip-path="url(#pca24181e5c)">
     <use style="fill:#ffffff;stroke:#4c4c4c;" x="1386.164375" xlink:href="#m6278f1fcfb" y="895.719142"/>
    </g>
   </g>
  </g>
 </g>
 <defs>
  <clipPath id="pca24181e5c">
   <rect height="1087.2" width="1785.6" x="46.964375" y="7.2"/>
  </clipPath>
 </defs>
</svg>
